<?xml version="1.0" encoding="iso-8859-1"?>
<!-- Generator: Adobe Illustrator 19.0.0, SVG Export Plug-In . SVG Version: 6.00 Build 0)  -->
<svg version="1.1" id="Layer_1" xmlns="http://www.w3.org/2000/svg" xmlns:xlink="http://www.w3.org/1999/xlink" x="0px" y="0px"
	 viewBox="0 0 512 512" style="enable-background:new 0 0 512 512;" xml:space="preserve">
<g>
	
		<rect x="193.856" y="99.6" transform="matrix(-0.7071 -0.7071 0.7071 -0.7071 232.0556 420.4248)" style="fill:#666666;" width="18.49" height="125.104"/>
	
		<rect x="247.074" y="152.909" transform="matrix(-0.7071 -0.7071 0.7071 -0.7071 413.9042 495.7527)" style="fill:#666666;" width="125.104" height="18.49"/>
</g>
<path style="fill:#9AD14B;" d="M485.252,421.853H26.748C11.975,421.853,0,409.877,0,395.105V220.748
	C0,205.976,11.975,194,26.748,194h458.504C500.025,194,512,205.976,512,220.748v174.358
	C512,409.877,500.025,421.853,485.252,421.853z"/>
<circle style="fill:#F7B239;" cx="256.003" cy="113.605" r="23.458"/>
<g>
	<path style="fill:#F2F2F2;" d="M131.923,254.846h-8.969c-16.92,0-30.685,13.765-30.685,30.685v44.792
		c0,16.92,13.765,30.685,30.685,30.685h8.969c16.92,0,30.685-13.765,30.685-30.685v-44.792
		C162.607,268.611,148.841,254.846,131.923,254.846z M144.116,330.323c0,6.724-5.471,12.195-12.195,12.195h-8.969
		c-6.724,0-12.195-5.471-12.195-12.195v-44.792c0-6.724,5.471-12.195,12.195-12.195h8.969c6.724,0,12.195,5.471,12.195,12.195
		V330.323z"/>
	<path style="fill:#F2F2F2;" d="M224.114,254.846h-36.892c-5.106,0-9.245,4.139-9.245,9.245v87.671c0,5.106,4.139,9.245,9.245,9.245
		s9.245-4.139,9.245-9.245v-29.406h27.647c13.345,0,24.202-10.857,24.202-24.201v-19.107
		C248.316,265.703,237.459,254.846,224.114,254.846z M229.826,298.155c0,3.15-2.563,5.711-5.712,5.711h-27.647v-30.53h27.647
		c3.149,0,5.712,2.563,5.712,5.712V298.155z"/>
	<path style="fill:#F2F2F2;" d="M410.488,254.846c-5.106,0-9.245,4.139-9.245,9.245v53.877l-34.646-58.582
		c-2.12-3.586-6.377-5.31-10.398-4.212c-4.019,1.1-6.806,4.751-6.806,8.917v87.671c0,5.106,4.139,9.245,9.245,9.245
		c5.106,0,9.245-4.139,9.245-9.245v-53.877l34.646,58.582c1.694,2.864,4.748,4.54,7.957,4.54c0.81,0,1.63-0.106,2.439-0.328
		c4.019-1.1,6.806-4.751,6.806-8.917v-87.671C419.733,258.985,415.593,254.846,410.488,254.846z"/>
	<path style="fill:#F2F2F2;" d="M324.778,273.336c5.106,0,9.245-4.139,9.245-9.245c0-5.106-4.139-9.245-9.245-9.245h-51.849
		c-5.106,0-9.245,4.139-9.245,9.245v87.671c0,5.106,4.139,9.245,9.245,9.245h51.849c5.106,0,9.245-4.139,9.245-9.245
		c0-5.106-4.139-9.245-9.245-9.245h-42.604v-24.402h16.679c5.106,0,9.245-4.139,9.245-9.245c0-5.106-4.139-9.245-9.245-9.245
		h-16.679v-26.288H324.778z"/>
</g>
<g>
</g>
<g>
</g>
<g>
</g>
<g>
</g>
<g>
</g>
<g>
</g>
<g>
</g>
<g>
</g>
<g>
</g>
<g>
</g>
<g>
</g>
<g>
</g>
<g>
</g>
<g>
</g>
<g>
</g>
</svg>
